<svg xmlns="http://www.w3.org/2000/svg" version="1.1" xmlns:xlink="http://www.w3.org/1999/xlink" xmlns:svgjs="http://svgjs.dev/svgjs" width="1500" height="378" viewBox="0 0 1500 378"><g transform="matrix(1,0,0,1,-0.9090909090911055,-0.16562301925557676)"><svg viewBox="0 0 396 100" data-background-color="#1f299c" preserveAspectRatio="xMidYMid meet" height="378" width="1500" xmlns="http://www.w3.org/2000/svg" xmlns:xlink="http://www.w3.org/1999/xlink"><g id="tight-bounds" transform="matrix(1,0,0,1,0.24000000000003752,0.043815613559672784)"><svg viewBox="0 0 395.5199999999999 99.91236877288065" height="99.91236877288065" width="395.5199999999999"><g><svg viewBox="0 0 551.6470125928923 139.35163772916414" height="99.91236877288065" width="395.5199999999999"><g transform="matrix(1,0,0,1,0,19.259162667344683)"><svg viewBox="0 0 395.52 100.83331239447477" height="100.83331239447477" width="395.52"><g id="textblocktransform"><svg viewBox="0 0 395.52 100.83331239447477" height="100.83331239447477" width="395.52" id="textblock"><g><svg viewBox="0 0 395.52 71.05921340470094" height="71.05921340470094" width="395.52"><g transform="matrix(1,0,0,1,0,0)"><svg width="395.52" viewBox="1.3 -38.35 214.82999999999998 38.6" height="71.05921340470094" data-palette-color="#e1eaf9"><path d="M37.15-35.85L37.15-35.85Q37.15-35.35 36.9-35.25 36.65-35.15 36.25-35.15L36.25-35.15Q35.9-35.15 35.55-35.18 35.2-35.2 34.85-35.2L34.85-35.2Q34.15-35.2 33.48-34.98 32.8-34.75 32.7-33.9L32.7-33.9Q32.65-33.05 32.65-32.15 32.65-31.25 32.65-30.35L32.65-30.35Q32.65-26.25 32.73-22.13 32.8-18 32.8-13.85L32.8-13.85Q32.8-9.6 31.55-6.43 30.3-3.25 27.53-1.5 24.75 0.25 20.15 0.25L20.15 0.25Q13.5 0.25 9.68-2.98 5.85-6.2 5.85-13.1L5.85-13.1 5.85-33Q5.85-33.25 5.88-33.52 5.9-33.8 5.85-34L5.85-34Q5.8-34.95 4.88-35.15 3.95-35.35 3.2-35.35L3.2-35.35Q2.85-35.35 2.48-35.33 2.1-35.3 1.7-35.3L1.7-35.3Q1.55-35.3 1.35-35.5L1.35-35.5Q1.3-35.7 1.3-36.05L1.3-36.05Q1.3-36.6 1.95-36.6L1.95-36.6Q2.5-36.6 3-36.58 3.5-36.55 4-36.5L4-36.5Q5.15-36.45 6.25-36.43 7.35-36.4 8.45-36.4L8.45-36.4Q10.2-36.4 11.93-36.5 13.65-36.6 15.4-36.6L15.4-36.6Q16.05-36.6 16.05-36L16.05-36Q16.05-35.8 15.95-35.52 15.85-35.25 15.55-35.25L15.55-35.25Q14.9-35.25 14.3-35.27 13.7-35.3 13.05-35.3L13.05-35.3Q12.5-35.3 11.8-35 11.1-34.7 11-34.05L11-34.05Q10.85-33.25 10.9-32.33 10.95-31.4 10.95-30.55L10.95-30.55Q10.95-26 10.9-21.45 10.85-16.9 10.85-12.35L10.85-12.35Q10.85-8.75 11.6-6.35 12.35-3.95 14.4-2.73 16.45-1.5 20.4-1.5L20.4-1.5Q24.25-1.5 26.53-3.1 28.8-4.7 29.8-7.45 30.8-10.2 30.8-13.7L30.8-13.7Q30.8-18.75 30.78-23.8 30.75-28.85 30.75-33.9L30.75-33.9Q30.75-34.6 30-34.9 29.25-35.2 28.65-35.2L28.65-35.2Q28.05-35.2 27.45-35.15 26.85-35.1 26.2-35.1L26.2-35.1Q25.9-35.1 25.9-35.55L25.9-35.55Q25.9-35.95 25.93-36.25 25.95-36.55 26.45-36.55L26.45-36.55Q27.15-36.55 27.9-36.48 28.65-36.4 29.35-36.4L29.35-36.4Q31.85-36.4 34.3-36.55L34.3-36.55Q34.95-36.55 35.58-36.6 36.2-36.65 36.8-36.65L36.8-36.65Q37.1-36.65 37.13-36.35 37.15-36.05 37.15-35.85ZM68.65-0.75L68.65-0.75Q68.65-0.1 67.9-0.1L67.9-0.1Q66.8-0.1 65.65-0.18 64.5-0.25 63.35-0.25L63.35-0.25Q61.65-0.25 59.87-0.18 58.1-0.1 56.35-0.1L56.35-0.1Q56.15-0.1 56.1-0.43 56.05-0.75 56.05-0.95L56.05-0.95Q56.05-1.35 56.55-1.35 57.05-1.35 57.35-1.35L57.35-1.35Q57.6-1.35 57.87-1.33 58.15-1.3 58.4-1.3L58.4-1.3Q59.85-1.3 60-2.75L60-2.75Q60.15-5.7 60.12-8.7 60.1-11.7 60.1-14.65L60.1-14.65Q60.1-15.2 60.1-15.78 60.1-16.35 60.1-16.9L60.1-16.9Q60.05-18.05 59.95-19.73 59.85-21.4 59.5-22.45L59.5-22.45Q58.7-25.05 56-25.05L56-25.05Q53.55-25.05 51.5-23.8 49.45-22.55 47.95-20.65L47.95-20.65Q47.9-17 47.9-13.4 47.9-9.8 47.9-6.2L47.9-6.2 47.9-2.75Q47.9-2 48.55-1.65 49.2-1.3 49.85-1.3L49.85-1.3Q50.25-1.3 50.62-1.38 51-1.45 51.35-1.45L51.35-1.45Q51.55-1.45 51.6-1.2 51.65-0.95 51.65-0.8L51.65-0.8Q51.65-0.6 51.52-0.35 51.4-0.1 51.1-0.1L51.1-0.1Q50-0.1 48.92-0.18 47.85-0.25 46.75-0.25L46.75-0.25Q45.05-0.25 43.35-0.18 41.65-0.1 39.9-0.1L39.9-0.1Q39.65-0.1 39.62-0.43 39.6-0.75 39.6-0.95L39.6-0.95Q39.6-1.35 40.05-1.35 40.5-1.35 40.75-1.35L40.75-1.35Q41-1.35 41.25-1.33 41.5-1.3 41.75-1.3L41.75-1.3Q43.2-1.3 43.35-2.75L43.35-2.75Q43.4-3.45 43.4-4.15 43.4-4.85 43.4-5.55L43.4-5.55Q43.4-9.85 43.4-14.18 43.4-18.5 43.35-22.8L43.35-22.8Q43.35-23.5 43.05-24.2 42.75-24.9 41.9-24.9L41.9-24.9Q41.25-24.9 40.65-24.7 40.05-24.5 39.4-24.5L39.4-24.5Q39.05-24.5 39.05-25L39.05-25Q39.05-25.1 39.07-25.23 39.1-25.35 39.15-25.4L39.15-25.4Q39.2-25.45 39.3-25.48 39.4-25.5 39.45-25.55L39.45-25.55Q40.35-25.8 41.32-25.9 42.3-26 43.2-26.2L43.2-26.2Q44.05-26.35 44.85-26.63 45.65-26.9 46.45-26.9L46.45-26.9Q46.8-26.9 47-26.55L47-26.55Q47.25-26.1 47.4-25.28 47.55-24.45 47.62-23.6 47.7-22.75 47.7-22.2L47.7-22.2Q48.8-23.3 50.32-24.38 51.85-25.45 53.52-26.18 55.2-26.9 56.8-26.9L56.8-26.9Q61.4-26.9 63.02-24.88 64.65-22.85 64.65-18.5L64.65-18.5Q64.65-14.6 64.62-10.7 64.6-6.8 64.6-2.9L64.6-2.9Q64.6-1.95 65.17-1.63 65.75-1.3 66.55-1.3L66.55-1.3Q66.95-1.3 67.35-1.38 67.75-1.45 68.1-1.45L68.1-1.45Q68.4-1.45 68.52-1.23 68.65-1 68.65-0.75ZM85.25-0.75L85.25-0.75Q85.25-0.5 85.1-0.28 84.95-0.05 84.7-0.05L84.7-0.05Q83.3-0.05 81.92-0.13 80.55-0.2 79.1-0.2L79.1-0.2 77.75-0.2Q76.25-0.2 74.77-0.13 73.3-0.05 71.85-0.05L71.85-0.05Q71.65-0.05 71.57-0.3 71.5-0.55 71.5-0.7L71.5-0.7Q71.5-0.95 71.55-1.07 71.6-1.2 71.85-1.25L71.85-1.25Q72.1-1.35 72.42-1.33 72.75-1.3 73.05-1.3L73.05-1.3Q73.4-1.3 73.7-1.28 74-1.25 74.35-1.25L74.35-1.25Q75.05-1.25 75.62-1.58 76.2-1.9 76.2-2.7L76.2-2.7 76.2-22.7Q76.2-23.55 75.9-24.03 75.6-24.5 74.65-24.5L74.65-24.5Q73.95-24.5 73.22-24.43 72.5-24.35 71.8-24.25L71.8-24.25Q71.4-24.25 71.4-24.7L71.4-24.7Q71.4-25.2 71.8-25.35L71.8-25.35Q72.4-25.55 73.07-25.63 73.75-25.7 74.35-25.8L74.35-25.8Q75.75-26.05 77.15-26.35 78.55-26.65 79.9-27L79.9-27Q80.05-27.05 80.3-27.05L80.3-27.05Q80.85-27.05 80.85-26.45L80.85-26.45Q80.85-20.55 80.82-14.6 80.8-8.65 80.8-2.7L80.8-2.7Q80.8-1.9 81.52-1.58 82.25-1.25 82.9-1.25L82.9-1.25Q83.4-1.25 83.92-1.3 84.45-1.35 84.95-1.35L84.95-1.35Q85.15-1.35 85.2-1.1 85.25-0.85 85.25-0.75ZM81.2-35.35L81.2-35.35Q81.2-34.1 80.3-33.23 79.4-32.35 78.15-32.35L78.15-32.35Q76.9-32.35 76-33.23 75.1-34.1 75.1-35.35L75.1-35.35Q75.1-36.6 76-37.48 76.9-38.35 78.15-38.35L78.15-38.35Q79.4-38.35 80.3-37.48 81.2-36.6 81.2-35.35ZM104.79-2.3L104.79-2.3Q104.79-1.85 104.12-1.4 103.44-0.95 102.49-0.6 101.54-0.25 100.67-0.05 99.79 0.15 99.39 0.15L99.39 0.15Q96.79 0.15 95.37-0.5 93.94-1.15 93.37-2.65 92.79-4.15 92.79-6.7L92.79-6.7Q92.79-10.85 92.82-15.03 92.84-19.2 92.89-23.35L92.89-23.35 89.29-23.35Q88.94-23.35 88.72-23.18 88.49-23 88.24-23L88.24-23Q87.99-23 87.99-23.35L87.99-23.35Q87.99-23.55 88.27-24.15 88.54-24.75 88.64-24.95L88.64-24.95Q88.79-24.9 89.09-24.9L89.09-24.9 92.99-24.9 93.04-31.25Q94.19-32 95.14-32.93 96.09-33.85 97.04-34.8L97.04-34.8Q97.14-34.9 97.24-34.98 97.34-35.05 97.44-35.05L97.44-35.05Q97.89-35.05 97.89-34.7L97.89-34.7 97.59-24.95Q99.19-24.95 100.77-25 102.34-25.05 103.89-25.05L103.89-25.05Q104.54-25.05 104.54-24.3L104.54-24.3Q104.54-23.35 103.69-23.35L103.69-23.35 97.59-23.35Q97.59-19.55 97.57-15.73 97.54-11.9 97.54-8.05L97.54-8.05 97.54-4.2Q97.54-2.95 98.59-2.48 99.64-2 100.64-2L100.64-2Q102.04-2 103.39-2.45L103.39-2.45Q103.54-2.55 103.84-2.65 104.14-2.75 104.29-2.75L104.29-2.75Q104.79-2.75 104.79-2.3ZM136.09-1.35L136.09-1.35Q136.09-0.75 135.22-0.45 134.34-0.15 133.29-0.05 132.24 0.05 131.79 0.05L131.79 0.05Q130.09 0.05 129.09-1.3 128.09-2.65 127.59-4.1L127.59-4.1Q125.89-1.95 123.34-0.9 120.79 0.15 118.04 0.15L118.04 0.15Q113.54 0.15 111.82-2.18 110.09-4.5 110.09-8.75L110.09-8.75Q110.09-12.5 110.12-16.28 110.14-20.05 110.19-23.8L110.19-23.8Q110.19-25.3 108.74-25.3L108.74-25.3Q108.34-25.3 107.94-25.25 107.54-25.2 107.14-25.2L107.14-25.2Q106.99-25.2 106.92-25.38 106.84-25.55 106.84-25.65L106.84-25.65Q106.84-26.2 107.34-26.25L107.34-26.25Q109.09-26.45 110.87-26.53 112.64-26.6 114.39-26.8L114.39-26.8Q114.79-26.4 114.79-25.8L114.79-25.8Q114.79-24.55 114.74-23.25 114.69-21.95 114.69-20.65L114.69-20.65Q114.64-17.6 114.62-14.53 114.59-11.45 114.59-8.35L114.59-8.35Q114.59-7.4 114.64-6.33 114.69-5.25 115.04-4.35L115.04-4.35Q115.59-2.95 117.12-2.38 118.64-1.8 120.04-1.8L120.04-1.8Q121.59-1.8 123.17-2.38 124.74-2.95 125.87-4.08 126.99-5.2 127.14-6.9L127.14-6.9Q127.24-7.75 127.27-8.63 127.29-9.5 127.29-10.35L127.29-10.35 127.24-23.95Q127.24-24.6 126.82-24.9 126.39-25.2 125.84-25.2L125.84-25.2Q125.34-25.2 124.87-25.15 124.39-25.1 123.89-25.1L123.89-25.1Q123.44-25.1 123.44-25.6L123.44-25.6Q123.44-26.1 123.89-26.15L123.89-26.15Q124.49-26.25 125.14-26.28 125.79-26.3 126.44-26.35L126.44-26.35 129.89-26.7Q130.24-26.75 130.62-26.8 130.99-26.85 131.34-26.85L131.34-26.85Q131.59-26.85 131.69-26.58 131.79-26.3 131.79-26.15L131.79-26.15Q131.64-15.3 131.64-4.5L131.64-4.5Q131.64-3.25 132.22-2.45 132.79-1.65 134.14-1.65L134.14-1.65Q134.54-1.65 134.87-1.75 135.19-1.85 135.54-1.85L135.54-1.85Q136.09-1.85 136.09-1.35ZM167.44-0.75L167.44-0.75Q167.44-0.1 166.69-0.1L166.69-0.1Q165.59-0.1 164.44-0.18 163.29-0.25 162.14-0.25L162.14-0.25Q160.44-0.25 158.66-0.18 156.89-0.1 155.14-0.1L155.14-0.1Q154.94-0.1 154.89-0.43 154.84-0.75 154.84-0.95L154.84-0.95Q154.84-1.35 155.34-1.35 155.84-1.35 156.14-1.35L156.14-1.35Q156.39-1.35 156.66-1.33 156.94-1.3 157.19-1.3L157.19-1.3Q158.64-1.3 158.79-2.75L158.79-2.75Q158.94-5.7 158.91-8.7 158.89-11.7 158.89-14.65L158.89-14.65Q158.89-15.2 158.89-15.78 158.89-16.35 158.89-16.9L158.89-16.9Q158.84-18.05 158.74-19.73 158.64-21.4 158.29-22.45L158.29-22.45Q157.49-25.05 154.79-25.05L154.79-25.05Q152.34-25.05 150.29-23.8 148.24-22.55 146.74-20.65L146.74-20.65Q146.69-17 146.69-13.4 146.69-9.8 146.69-6.2L146.69-6.2 146.69-2.75Q146.69-2 147.34-1.65 147.99-1.3 148.64-1.3L148.64-1.3Q149.04-1.3 149.41-1.38 149.79-1.45 150.14-1.45L150.14-1.45Q150.34-1.45 150.39-1.2 150.44-0.95 150.44-0.8L150.44-0.8Q150.44-0.6 150.31-0.35 150.19-0.1 149.89-0.1L149.89-0.1Q148.79-0.1 147.71-0.18 146.64-0.25 145.54-0.25L145.54-0.25Q143.84-0.25 142.14-0.18 140.44-0.1 138.69-0.1L138.69-0.1Q138.44-0.1 138.41-0.43 138.39-0.75 138.39-0.95L138.39-0.95Q138.39-1.35 138.84-1.35 139.29-1.35 139.54-1.35L139.54-1.35Q139.79-1.35 140.04-1.33 140.29-1.3 140.54-1.3L140.54-1.3Q141.99-1.3 142.14-2.75L142.14-2.75Q142.19-3.45 142.19-4.15 142.19-4.85 142.19-5.55L142.19-5.55Q142.19-9.85 142.19-14.18 142.19-18.5 142.14-22.8L142.14-22.8Q142.14-23.5 141.84-24.2 141.54-24.9 140.69-24.9L140.69-24.9Q140.04-24.9 139.44-24.7 138.84-24.5 138.19-24.5L138.19-24.5Q137.84-24.5 137.84-25L137.84-25Q137.84-25.1 137.86-25.23 137.89-25.35 137.94-25.4L137.94-25.4Q137.99-25.45 138.09-25.48 138.19-25.5 138.24-25.55L138.24-25.55Q139.14-25.8 140.11-25.9 141.09-26 141.99-26.2L141.99-26.2Q142.84-26.35 143.64-26.63 144.44-26.9 145.24-26.9L145.24-26.9Q145.59-26.9 145.79-26.55L145.79-26.55Q146.04-26.1 146.19-25.28 146.34-24.45 146.41-23.6 146.49-22.75 146.49-22.2L146.49-22.2Q147.59-23.3 149.11-24.38 150.64-25.45 152.31-26.18 153.99-26.9 155.59-26.9L155.59-26.9Q160.19-26.9 161.81-24.88 163.44-22.85 163.44-18.5L163.44-18.5Q163.44-14.6 163.41-10.7 163.39-6.8 163.39-2.9L163.39-2.9Q163.39-1.95 163.96-1.63 164.54-1.3 165.34-1.3L165.34-1.3Q165.74-1.3 166.14-1.38 166.54-1.45 166.89-1.45L166.89-1.45Q167.19-1.45 167.31-1.23 167.44-1 167.44-0.75ZM188.59-17.55L188.59-17.55Q188.54-19.6 188.24-21.48 187.94-23.35 186.79-24.58 185.64-25.8 183.04-25.8L183.04-25.8Q180.69-25.8 179.21-24.53 177.74-23.25 176.94-21.33 176.14-19.4 175.74-17.4L175.74-17.4Q176.99-17.35 178.19-17.32 179.39-17.3 180.59-17.3L180.59-17.3Q182.59-17.3 184.59-17.38 186.59-17.45 188.59-17.55ZM194.34-6.1L194.34-6.1Q194.34-5.85 194.24-5.8L194.24-5.8Q194.09-5.3 193.51-4.6 192.94-3.9 192.24-3.28 191.54-2.65 191.09-2.35L191.09-2.35Q189.44-1.2 187.36-0.5 185.29 0.2 183.24 0.2L183.24 0.2Q181.54 0.2 179.46-0.35 177.39-0.9 175.94-1.85L175.94-1.85Q173.14-3.7 171.84-6.7 170.54-9.7 170.54-12.95L170.54-12.95Q170.54-16.65 171.99-19.8 173.44-22.95 176.64-24.9L176.64-24.9Q178.09-25.75 179.89-26.33 181.69-26.9 183.34-26.9L183.34-26.9Q186.29-26.9 188.54-25.7 190.79-24.5 192.06-22.33 193.34-20.15 193.34-17.15L193.34-17.15Q193.34-16.3 192.96-16.05 192.59-15.8 191.84-15.8L191.84-15.8Q190.84-15.8 189.84-15.85 188.84-15.9 187.84-15.95L187.84-15.95Q186.44-16.05 185.06-16.05 183.69-16.05 182.29-16.05L182.29-16.05Q180.59-16.05 178.89-16.05 177.19-16.05 175.49-15.95L175.49-15.95Q175.44-15.15 175.39-14.4 175.34-13.65 175.34-12.85L175.34-12.85Q175.34-11 175.79-9.03 176.24-7.05 177.24-5.38 178.24-3.7 179.79-2.68 181.34-1.65 183.54-1.65L183.54-1.65Q185.79-1.65 187.84-2.35 189.89-3.05 191.59-4.6L191.59-4.6Q192.04-5.05 192.41-5.58 192.79-6.1 193.24-6.5L193.24-6.5Q193.49-6.75 193.79-6.75L193.79-6.75Q194.04-6.75 194.19-6.55 194.34-6.35 194.34-6.1ZM216.13-7.15L216.13-7.15Q216.13-4.9 215.13-3.48 214.13-2.05 212.53-1.3 210.93-0.55 209.03-0.25 207.13 0.05 205.33 0.05L205.33 0.05Q203.68 0.05 202.06-0.3 200.43-0.65 198.78-0.8L198.78-0.8Q198.43-2.15 198.11-3.5 197.78-4.85 197.38-6.15L197.38-6.15Q197.33-6.3 197.16-6.85 196.98-7.4 196.98-7.45L196.98-7.45Q196.98-7.85 197.23-8.03 197.48-8.2 197.83-8.2L197.83-8.2Q198.18-8.2 198.33-7.95L198.33-7.95Q198.63-7.6 198.86-7 199.08-6.4 199.28-5.95L199.28-5.95Q199.68-5.15 199.98-4.73 200.28-4.3 200.93-3.65L200.93-3.65Q202.88-1.6 205.78-1.6L205.78-1.6Q207.38-1.6 208.71-1.95 210.03-2.3 210.83-3.28 211.63-4.25 211.63-6.1L211.63-6.1Q211.63-7.7 210.63-8.78 209.63-9.85 208.06-10.7 206.48-11.55 204.73-12.35 202.98-13.15 201.41-14.13 199.83-15.1 198.83-16.5 197.83-17.9 197.83-19.9L197.83-19.9Q197.83-22.35 199.11-23.9 200.38-25.45 202.38-26.23 204.38-27 206.53-27L206.53-27Q207.93-27 209.06-26.65 210.18-26.3 211.43-25.85L211.43-25.85Q211.83-25.7 212.23-25.65 212.63-25.6 213.03-25.6L213.03-25.6Q213.28-25.6 213.48-25.6 213.68-25.6 213.88-25.65L213.88-25.65Q214.03-24.75 214.16-23.83 214.28-22.9 214.38-21.95L214.38-21.95Q214.43-21.6 214.51-21.13 214.58-20.65 214.58-20.25L214.58-20.25Q214.58-19.9 214.43-19.53 214.28-19.15 213.83-19.15L213.83-19.15Q213.48-19.15 213.26-19.23 213.03-19.3 212.88-19.65L212.88-19.65Q212.63-20.15 212.46-20.73 212.28-21.3 212.08-21.8L212.08-21.8Q211.43-23.55 209.83-24.63 208.23-25.7 206.38-25.7L206.38-25.7Q204.03-25.7 202.83-24.33 201.63-22.95 201.63-20.65L201.63-20.65Q201.63-19.85 202.06-19.1 202.48-18.35 203.03-17.8L203.03-17.8Q204.08-16.8 205.51-16.25 206.93-15.7 208.23-15.15L208.23-15.15Q209.93-14.4 211.76-13.35 213.58-12.3 214.86-10.8 216.13-9.3 216.13-7.15Z" opacity="1" transform="matrix(1,0,0,1,0,0)" fill="#e1eaf9" class="wordmark-text-0" data-fill-palette-color="primary" id="text-0"></path></svg></g></svg></g><g transform="matrix(1,0,0,1,163.31020800000002,87.83458826842912)"><svg viewBox="0 0 232.20979199999996 12.99872412604566" height="12.99872412604566" width="232.20979199999996"><g transform="matrix(1,0,0,1,0,0)"><svg width="232.20979199999996" viewBox="3.15 -33.7 794.87 44.5" height="12.99872412604566" data-palette-color="#e1eaf9"><path d="M25.6 0L3.15 0 3.15-32.2 25.6-32.2 25.6-27.95 8.6-27.95 8.6-18.2 23.75-18.2 23.75-14 8.6-14 8.6-4.2 25.6-4.2 25.6 0ZM36 0L30.65 0 30.65-23.7 35.65-23.7 35.9-21.2Q37.65-22.6 39.75-23.4 41.85-24.2 44.25-24.2L44.25-24.2Q46.8-24.2 48.22-23.38 49.65-22.55 50.4-21.1L50.4-21.1Q52.05-22.45 54.2-23.33 56.35-24.2 59.35-24.2L59.35-24.2Q63.45-24.2 65.4-22.1 67.35-20 67.35-15.65L67.35-15.65 67.35 0 62 0 62-15.1Q62-17.85 60.85-18.95 59.7-20.05 57.1-20.05L57.1-20.05Q55.4-20.05 53.87-19.45 52.35-18.85 51.25-17.65L51.25-17.65Q51.4-17.1 51.45-16.5 51.5-15.9 51.5-15.2L51.5-15.2 51.5 0 46.45 0 46.45-15.05Q46.45-17.65 45.55-18.85 44.65-20.05 42.15-20.05L42.15-20.05Q40.4-20.05 38.82-19.23 37.25-18.4 36-17.25L36-17.25 36 0ZM78.89 10.8L73.45 10.8 73.45-23.7 78.14-23.7 78.45-21.35Q80.05-22.8 81.95-23.5 83.84-24.2 86.45-24.2L86.45-24.2Q91.55-24.2 94.4-21.43 97.25-18.65 97.25-12.25L97.25-12.25Q97.25-5.85 94.3-2.68 91.34 0.5 86.25 0.5L86.25 0.5Q81.95 0.5 78.89-1.5L78.89-1.5 78.89 10.8ZM84.84-3.6L84.84-3.6Q91.75-3.6 91.75-12.3L91.75-12.3Q91.75-16.5 90.2-18.28 88.65-20.05 85-20.05L85-20.05Q81.34-20.05 78.89-17.55L78.89-17.55 78.89-5.7Q80.05-4.75 81.47-4.17 82.9-3.6 84.84-3.6ZM113.89 0.5L113.89 0.5Q107.49 0.5 104.52-2.7 101.54-5.9 101.54-11.85L101.54-11.85Q101.54-17.8 104.54-21 107.54-24.2 113.89-24.2L113.89-24.2Q120.29-24.2 123.29-21 126.29-17.8 126.29-11.85L126.29-11.85Q126.29-5.9 123.32-2.7 120.34 0.5 113.89 0.5ZM113.89-4.1L113.89-4.1Q117.64-4.1 119.22-5.93 120.79-7.75 120.79-11.85L120.79-11.85Q120.79-15.95 119.22-17.75 117.64-19.55 113.89-19.55L113.89-19.55Q110.19-19.55 108.62-17.75 107.04-15.95 107.04-11.85L107.04-11.85Q107.04-7.75 108.62-5.93 110.19-4.1 113.89-4.1ZM139.79 0L134.59 0 128.34-23.7 133.79-23.7 137.89-6.45 142.54-20.8 142.54-23.7 146.69-23.7 151.84-6.45 155.94-23.7 161.34-23.7 155.14 0 149.99 0 144.94-15.5 139.79 0ZM176.39 0.5L176.39 0.5Q170.19 0.5 166.79-2.55 163.39-5.6 163.39-11.9L163.39-11.9Q163.39-17.6 166.29-20.9 169.19-24.2 175.09-24.2L175.09-24.2Q180.49-24.2 183.21-21.38 185.94-18.55 185.94-14.1L185.94-14.1 185.94-9.7 168.59-9.7Q168.99-6.25 171.09-4.95 173.19-3.65 177.49-3.65L177.49-3.65Q179.29-3.65 181.19-4 183.09-4.35 184.49-4.9L184.49-4.9 184.49-0.9Q182.89-0.2 180.81 0.15 178.74 0.5 176.39 0.5ZM168.59-13.25L168.59-13.25 181.14-13.25 181.14-14.9Q181.14-17.35 179.79-18.73 178.44-20.1 175.24-20.1L175.24-20.1Q171.44-20.1 170.01-18.45 168.59-16.8 168.59-13.25ZM196.69 0L191.24 0 191.24-23.7 196.24-23.7 196.54-20.95Q198.24-22.05 200.59-22.95 202.94-23.85 205.24-24.2L205.24-24.2 205.24-20.05Q203.84-19.8 202.21-19.33 200.59-18.85 199.14-18.28 197.69-17.7 196.69-17.1L196.69-17.1 196.69 0ZM217.13-28.65L211.18-28.65 211.18-33.15 217.13-33.15 217.13-28.65ZM217.08 0L211.63 0 211.63-19.55 208.03-19.55 208.53-23.7 217.08-23.7 217.08 0ZM228.88 0L223.43 0 223.43-23.7 228.43-23.7 228.68-21.2Q230.28-22.45 232.51-23.33 234.73-24.2 237.43-24.2L237.43-24.2Q242.03-24.2 244.13-22.05 246.23-19.9 246.23-15.35L246.23-15.35 246.23 0 240.83 0 240.83-15.1Q240.83-17.85 239.71-18.95 238.58-20.05 235.48-20.05L235.48-20.05Q233.63-20.05 231.86-19.3 230.08-18.55 228.88-17.35L228.88-17.35 228.88 0ZM261.93 8.8L261.93 8.8Q259.28 8.8 256.63 8.47 253.98 8.15 252.13 7.5L252.13 7.5 252.13 3.3Q254.13 3.95 256.73 4.3 259.33 4.65 261.68 4.65L261.68 4.65Q265.28 4.65 266.93 4.25 268.58 3.85 268.58 2.45L268.58 2.45Q268.58 1.4 267.78 0.98 266.98 0.55 264.73 0.55L264.73 0.55 258.33 0.55Q251.88 0.55 251.88-4L251.88-4Q251.88-5.45 252.73-6.7 253.58-7.95 255.43-8.6L255.43-8.6Q253.38-9.6 252.4-11.35 251.43-13.1 251.43-15.55L251.43-15.55Q251.43-20.1 254.15-22.15 256.88-24.2 262.33-24.2L262.33-24.2Q263.48-24.2 264.73-24.03 265.98-23.85 266.68-23.7L266.68-23.7 275.38-23.7 275.23-20.15 271.23-20.15Q272.18-19.35 272.63-18.15 273.08-16.95 273.08-15.55L273.08-15.55Q273.08-11.75 270.78-9.58 268.48-7.4 263.83-7.4L263.83-7.4Q263.03-7.4 262.35-7.48 261.68-7.55 260.88-7.65L260.88-7.65Q259.38-7.5 258.18-6.85 256.98-6.2 256.98-5.1L256.98-5.1Q256.98-4.35 257.58-4.03 258.18-3.7 259.58-3.7L259.58-3.7 266.23-3.7Q269.78-3.7 271.7-2.18 273.63-0.65 273.63 2.25L273.63 2.25Q273.63 5.75 270.6 7.28 267.58 8.8 261.93 8.8ZM262.33-10.85L262.33-10.85Q265.58-10.85 266.85-11.95 268.13-13.05 268.13-15.7L268.13-15.7Q268.13-18.35 266.85-19.55 265.58-20.75 262.33-20.75L262.33-20.75Q259.28-20.75 257.88-19.6 256.48-18.45 256.48-15.7L256.48-15.7Q256.48-13.15 257.8-12 259.13-10.85 262.33-10.85ZM296.92 0L291.52 0 291.52-32.2 297.12-32.2 307.32-11.35 317.47-32.2 323.07-32.2 323.07 0 317.67 0 317.67-23.35 308.97-5.55 305.67-5.55 296.92-23.35 296.92 0ZM336.07-28.65L330.12-28.65 330.12-33.15 336.07-33.15 336.07-28.65ZM336.02 0L330.57 0 330.57-19.55 326.97-19.55 327.47-23.7 336.02-23.7 336.02 0ZM347.82 0L342.37 0 342.37-23.7 347.37-23.7 347.62-21.2Q349.22-22.45 351.44-23.33 353.67-24.2 356.37-24.2L356.37-24.2Q360.97-24.2 363.07-22.05 365.17-19.9 365.17-15.35L365.17-15.35 365.17 0 359.77 0 359.77-15.1Q359.77-17.85 358.64-18.95 357.52-20.05 354.42-20.05L354.42-20.05Q352.57-20.05 350.79-19.3 349.02-18.55 347.82-17.35L347.82-17.35 347.82 0ZM380.57 0.5L380.57 0.5Q377.37 0.5 374.92-0.6 372.47-1.7 371.12-4.25 369.77-6.8 369.77-11.1L369.77-11.1Q369.77-15.35 371.22-18.28 372.67-21.2 375.24-22.7 377.82-24.2 381.07-24.2L381.07-24.2Q383.22-24.2 384.89-23.7 386.57-23.2 388.12-22.15L388.12-22.15 388.12-33.7 393.57-33.7 393.57 0 388.92 0 388.57-2.35Q386.97-0.9 385.07-0.2 383.17 0.5 380.57 0.5ZM382.02-3.6L382.02-3.6Q385.67-3.6 388.12-6.1L388.12-6.1 388.12-17.95Q385.77-20.05 382.22-20.05L382.22-20.05Q378.77-20.05 377.02-17.75 375.27-15.45 375.27-11.05L375.27-11.05Q375.27-6.8 376.89-5.2 378.52-3.6 382.02-3.6ZM407.76 0.5L407.76 0.5Q405.31 0.5 403.09 0.15 400.86-0.2 399.41-0.7L399.41-0.7 399.41-5.3Q401.11-4.65 403.16-4.3 405.21-3.95 407.06-3.95L407.06-3.95Q409.86-3.95 411.06-4.45 412.26-4.95 412.26-6.4L412.26-6.4Q412.26-7.45 411.54-8.05 410.81-8.65 409.39-9.15 407.96-9.65 405.76-10.35L405.76-10.35Q403.66-11.05 402.11-11.88 400.56-12.7 399.71-14 398.86-15.3 398.86-17.4L398.86-17.4Q398.86-20.65 401.21-22.43 403.56-24.2 408.76-24.2L408.76-24.2Q410.81-24.2 412.66-23.9 414.51-23.6 415.81-23.15L415.81-23.15 415.81-18.6Q414.41-19.15 412.74-19.45 411.06-19.75 409.61-19.75L409.61-19.75Q407.01-19.75 405.69-19.3 404.36-18.85 404.36-17.5L404.36-17.5Q404.36-16.1 405.74-15.53 407.11-14.95 410.16-13.95L410.16-13.95Q412.96-13.1 414.61-12.15 416.26-11.2 416.99-9.88 417.71-8.55 417.71-6.45L417.71-6.45Q417.71-2.95 415.16-1.23 412.61 0.5 407.76 0.5ZM437.51 6L433.56 6 435.06-3.45 439.81-3.45 437.51 6ZM479.05 0L456.6 0 456.6-32.2 479.05-32.2 479.05-27.95 462.05-27.95 462.05-18.2 477.2-18.2 477.2-14 462.05-14 462.05-4.2 479.05-4.2 479.05 0ZM490 0.5L490 0.5Q487.1 0.5 485.6-0.93 484.1-2.35 484.1-5.65L484.1-5.65 484.1-33.7 489.55-33.7 489.55-6.15Q489.55-4.75 490.05-4.25 490.55-3.75 491.55-3.75L491.55-3.75Q492.75-3.75 493.85-4.05L493.85-4.05 493.85-0.1Q492.9 0.25 492.03 0.38 491.15 0.5 490 0.5ZM510.1 0.5L510.1 0.5Q503.9 0.5 500.5-2.55 497.1-5.6 497.1-11.9L497.1-11.9Q497.1-17.6 500-20.9 502.9-24.2 508.8-24.2L508.8-24.2Q514.2-24.2 516.92-21.38 519.65-18.55 519.65-14.1L519.65-14.1 519.65-9.7 502.3-9.7Q502.7-6.25 504.8-4.95 506.9-3.65 511.2-3.65L511.2-3.65Q513-3.65 514.9-4 516.8-4.35 518.2-4.9L518.2-4.9 518.2-0.9Q516.6-0.2 514.52 0.15 512.45 0.5 510.1 0.5ZM502.3-13.25L502.3-13.25 514.85-13.25 514.85-14.9Q514.85-17.35 513.5-18.73 512.15-20.1 508.95-20.1L508.95-20.1Q505.15-20.1 503.72-18.45 502.3-16.8 502.3-13.25ZM536.45 0L530.55 0 521.2-23.7 526.85-23.7 533.5-5.3 540.15-23.7 545.75-23.7 536.45 0ZM556.24 0.5L556.24 0.5Q553.99 0.5 552.07-0.3 550.14-1.1 548.99-2.73 547.84-4.35 547.84-6.75L547.84-6.75Q547.84-10.15 550.17-12.23 552.49-14.3 557.34-14.3L557.34-14.3 564.94-14.3 564.94-15.35Q564.94-17.05 564.42-18.05 563.89-19.05 562.52-19.5 561.14-19.95 558.49-19.95L558.49-19.95Q554.29-19.95 550.64-18.7L550.64-18.7 550.64-22.75Q552.24-23.4 554.54-23.8 556.84-24.2 559.49-24.2L559.49-24.2Q564.69-24.2 567.42-22.1 570.14-20 570.14-15.25L570.14-15.25 570.14 0 565.49 0 565.14-2.4Q563.69-1 561.57-0.25 559.44 0.5 556.24 0.5ZM557.69-3.4L557.69-3.4Q560.14-3.4 561.97-4.23 563.79-5.05 564.94-6.45L564.94-6.45 564.94-10.6 557.44-10.6Q555.04-10.6 553.97-9.68 552.89-8.75 552.89-6.85L552.89-6.85Q552.89-5 554.14-4.2 555.39-3.4 557.69-3.4ZM585.24 0.5L585.24 0.5Q581.44 0.5 579.56-1.53 577.69-3.55 577.69-7.05L577.69-7.05 577.69-19.45 574.19-19.45 574.19-23.7 577.69-23.7 577.69-29.15 583.09-30.8 583.09-23.7 589.39-23.7 589.04-19.45 583.09-19.45 583.09-7.35Q583.09-5.3 584.04-4.48 584.99-3.65 587.14-3.65L587.14-3.65Q588.49-3.65 589.99-4.15L589.99-4.15 589.99-0.3Q588.04 0.5 585.24 0.5ZM602.09-28.65L596.14-28.65 596.14-33.15 602.09-33.15 602.09-28.65ZM602.04 0L596.59 0 596.59-19.55 592.99-19.55 593.49-23.7 602.04-23.7 602.04 0ZM613.83 0L608.38 0 608.38-23.7 613.38-23.7 613.63-21.2Q615.23-22.45 617.46-23.33 619.68-24.2 622.38-24.2L622.38-24.2Q626.98-24.2 629.08-22.05 631.18-19.9 631.18-15.35L631.18-15.35 631.18 0 625.78 0 625.78-15.1Q625.78-17.85 624.66-18.95 623.53-20.05 620.43-20.05L620.43-20.05Q618.58-20.05 616.81-19.3 615.03-18.55 613.83-17.35L613.83-17.35 613.83 0ZM646.88 8.8L646.88 8.8Q644.23 8.8 641.58 8.47 638.93 8.15 637.08 7.5L637.08 7.5 637.08 3.3Q639.08 3.95 641.68 4.3 644.28 4.65 646.63 4.65L646.63 4.65Q650.23 4.65 651.88 4.25 653.53 3.85 653.53 2.45L653.53 2.45Q653.53 1.4 652.73 0.98 651.93 0.55 649.68 0.55L649.68 0.55 643.28 0.55Q636.83 0.55 636.83-4L636.83-4Q636.83-5.45 637.68-6.7 638.53-7.95 640.38-8.6L640.38-8.6Q638.33-9.6 637.36-11.35 636.38-13.1 636.38-15.55L636.38-15.55Q636.38-20.1 639.11-22.15 641.83-24.2 647.28-24.2L647.28-24.2Q648.43-24.2 649.68-24.03 650.93-23.85 651.63-23.7L651.63-23.7 660.33-23.7 660.18-20.15 656.18-20.15Q657.13-19.35 657.58-18.15 658.03-16.95 658.03-15.55L658.03-15.55Q658.03-11.75 655.73-9.58 653.43-7.4 648.78-7.4L648.78-7.4Q647.98-7.4 647.31-7.48 646.63-7.55 645.83-7.65L645.83-7.65Q644.33-7.5 643.13-6.85 641.93-6.2 641.93-5.1L641.93-5.1Q641.93-4.35 642.53-4.03 643.13-3.7 644.53-3.7L644.53-3.7 651.18-3.7Q654.73-3.7 656.66-2.18 658.58-0.65 658.58 2.25L658.58 2.25Q658.58 5.75 655.56 7.28 652.53 8.8 646.88 8.8ZM647.28-10.85L647.28-10.85Q650.53-10.85 651.81-11.95 653.08-13.05 653.08-15.7L653.08-15.7Q653.08-18.35 651.81-19.55 650.53-20.75 647.28-20.75L647.28-20.75Q644.23-20.75 642.83-19.6 641.43-18.45 641.43-15.7L641.43-15.7Q641.43-13.15 642.76-12 644.08-10.85 647.28-10.85ZM692.78 0L676.48 0 676.48-32.2 692.08-32.2Q696.88-32.2 699.18-29.95 701.48-27.7 701.48-23.6L701.48-23.6Q701.48-21 700.43-19.23 699.38-17.45 697.63-16.55L697.63-16.55Q699.98-15.9 701.35-14.23 702.73-12.55 702.73-9.3L702.73-9.3Q702.73-4.6 700.2-2.3 697.68 0 692.78 0L692.78 0ZM681.93-28.1L681.93-18.45 691.33-18.45Q694.08-18.45 695.25-19.73 696.43-21 696.43-23.15L696.43-23.15Q696.43-25.65 695.23-26.88 694.03-28.1 690.73-28.1L690.73-28.1 681.93-28.1ZM681.93-14.45L681.93-4 691.63-4Q694.53-4 695.88-5.23 697.23-6.45 697.23-9.5L697.23-9.5Q697.23-12 695.9-13.23 694.58-14.45 691.08-14.45L691.08-14.45 681.93-14.45ZM720.02 0.5L720.02 0.5Q713.82 0.5 710.42-2.55 707.02-5.6 707.02-11.9L707.02-11.9Q707.02-17.6 709.92-20.9 712.82-24.2 718.72-24.2L718.72-24.2Q724.12-24.2 726.85-21.38 729.57-18.55 729.57-14.1L729.57-14.1 729.57-9.7 712.22-9.7Q712.62-6.25 714.72-4.95 716.82-3.65 721.12-3.65L721.12-3.65Q722.92-3.65 724.82-4 726.72-4.35 728.12-4.9L728.12-4.9 728.12-0.9Q726.52-0.2 724.45 0.15 722.37 0.5 720.02 0.5ZM712.22-13.25L712.22-13.25 724.77-13.25 724.77-14.9Q724.77-17.35 723.42-18.73 722.07-20.1 718.87-20.1L718.87-20.1Q715.07-20.1 713.65-18.45 712.22-16.8 712.22-13.25ZM742.27 0.5L742.27 0.5Q740.02 0.5 738.1-0.3 736.17-1.1 735.02-2.73 733.87-4.35 733.87-6.75L733.87-6.75Q733.87-10.15 736.2-12.23 738.52-14.3 743.37-14.3L743.37-14.3 750.97-14.3 750.97-15.35Q750.97-17.05 750.45-18.05 749.92-19.05 748.55-19.5 747.17-19.95 744.52-19.95L744.52-19.95Q740.32-19.95 736.67-18.7L736.67-18.7 736.67-22.75Q738.27-23.4 740.57-23.8 742.87-24.2 745.52-24.2L745.52-24.2Q750.72-24.2 753.45-22.1 756.17-20 756.17-15.25L756.17-15.25 756.17 0 751.52 0 751.17-2.4Q749.72-1 747.6-0.25 745.47 0.5 742.27 0.5ZM743.72-3.4L743.72-3.4Q746.17-3.4 748-4.23 749.82-5.05 750.97-6.45L750.97-6.45 750.97-10.6 743.47-10.6Q741.07-10.6 740-9.68 738.92-8.75 738.92-6.85L738.92-6.85Q738.92-5 740.17-4.2 741.42-3.4 743.72-3.4ZM771.27 0.5L771.27 0.5Q767.47 0.5 765.59-1.53 763.72-3.55 763.72-7.05L763.72-7.05 763.72-19.45 760.22-19.45 760.22-23.7 763.72-23.7 763.72-29.15 769.12-30.8 769.12-23.7 775.42-23.7 775.07-19.45 769.12-19.45 769.12-7.35Q769.12-5.3 770.07-4.48 771.02-3.65 773.17-3.65L773.17-3.65Q774.52-3.65 776.02-4.15L776.02-4.15 776.02-0.3Q774.07 0.5 771.27 0.5ZM788.07 0.5L788.07 0.5Q785.62 0.5 783.39 0.15 781.17-0.2 779.72-0.7L779.72-0.7 779.72-5.3Q781.42-4.65 783.47-4.3 785.52-3.95 787.37-3.95L787.37-3.95Q790.17-3.95 791.37-4.45 792.57-4.95 792.57-6.4L792.57-6.4Q792.57-7.45 791.84-8.05 791.12-8.65 789.69-9.15 788.27-9.65 786.07-10.35L786.07-10.35Q783.97-11.05 782.42-11.88 780.87-12.7 780.02-14 779.17-15.3 779.17-17.4L779.17-17.4Q779.17-20.65 781.52-22.43 783.87-24.2 789.07-24.2L789.07-24.2Q791.12-24.2 792.97-23.9 794.82-23.6 796.12-23.15L796.12-23.15 796.12-18.6Q794.72-19.15 793.04-19.45 791.37-19.75 789.92-19.75L789.92-19.75Q787.32-19.75 785.99-19.3 784.67-18.85 784.67-17.5L784.67-17.5Q784.67-16.1 786.04-15.53 787.42-14.95 790.47-13.95L790.47-13.95Q793.27-13.1 794.92-12.15 796.57-11.2 797.29-9.88 798.02-8.55 798.02-6.45L798.02-6.45Q798.02-2.95 795.47-1.23 792.92 0.5 788.07 0.5Z" opacity="1" transform="matrix(1,0,0,1,0,0)" fill="#e1eaf9" class="slogan-text-1" data-fill-palette-color="secondary" id="text-1"></path></svg></g></svg></g></svg></g></svg></g><g transform="matrix(1,0,0,1,412.29537486372817,0)"><svg viewBox="0 0 139.35163772916414 139.35163772916414" height="139.35163772916414" width="139.35163772916414"><g data-palette-color="#b5e8f6"><rect width="38.08944764597153" height="139.35163772916414" fill="#b5e8f6" stroke="transparent" data-fill-palette-color="accent" x="0" fill-opacity="1"></rect><rect width="38.08944764597153" height="139.35163772916414" fill="#b5e8f6" stroke="transparent" data-fill-palette-color="accent" x="46.450545909721384" fill-opacity="0.75"></rect><rect width="38.08944764597153" height="139.35163772916414" fill="#b5e8f6" stroke="transparent" data-fill-palette-color="accent" x="92.90109181944277" fill-opacity="0.5"></rect></g></svg></g></svg></g><defs></defs></svg><rect width="395.5199999999999" height="99.91236877288065" fill="none" stroke="none" visibility="hidden"></rect></g></svg></g></svg>